#N canvas 544 48 736 793 10;
#X text 66 27 Pure Data Auto completion TCL plugin demo;
#X text 66 89 1 - Create an object box and press tab. Then type poly
to see the suggestions;
#X obj 70 71 cnv 11 116 17 empty empty normal search 5 9 0 14 -1 -262144
0;
#X obj 70 181 cnv 11 130 17 empty empty skipping search 5 9 0 14 -1
-262144 0;
#X obj 70 381 cnv 11 150 17 empty empty monolithic search 5 9 0 14
-1 -262144 0;
#X text 66 209 2 - Create an object box and press tab. Then type .mfn
to find the [makefilename] object. It searches for anything that contains
the 'm' \, 'f' and 'n' chars in that order.;
#X text 66 419 3 - Create an object box and press tab. Then type \,
demu to find the [demultiplex] object located in zexy. You need to
load the desired library to use those objects because they are located
inside a 'monolithic' distribution (.dll \, pd_linux or pd_darwin)
, f 78;
#X text 340 758 https://github.com/HenriAugusto/PD-AutoComplete-Plugin
;
