#N canvas 534 23 418 586 10;
#X obj 44 191 cnv 11 116 17 empty empty normal search 5 9 0 14 #000000 #fcfcfc 0;
#X obj 44 261 cnv 11 130 17 empty empty skipping search 5 9 0 14 #000000 #fcfcfc 0;
#X obj 39 356 cnv 11 150 17 empty empty monolithic search 5 9 0 14 #000000 #fcfcfc 0;
#X text 185 258 searches starting with a "." (period), f 19;
#X obj 40 482 cnv 11 176 17 empty empty Link\ to\ Repository 2 9 0 14 #009c04 #fcfcfc 0;
#X text 200 356 searches starting with a " " (comma), f 22;
#X text 217 367 \,;
#X obj 46 19 cnv 11 232 17 empty empty Instructions 2 9 0 14 #580094 #fcfcfc 0;
#X msg 61 520 browse https://github.com/porres/completion-plugin;
#X obj 61 541 pdcontrol;
#X text 60 400 - type a comma the hotkey. Typing "demu" may find the [demultiplex] object located inside the zexy binary \, which needs to be preloaded so the object can be created., f 50;
#X text 39 98 Use up/down arrow keys to navigate through suggested selections and click with the left mouse button or press enter to choose it., f 53;
#X text 38 138 There are 3 search modes. The plugin has background colors for each and you can edit them in preferences as well., f 53;
#X text 61 218 - Create an object box \, type text and and press the hotkey for suggestions, f 40;
#X text 49 296 - Type ".mfn" and the hotkey to search for anything that contains the 'm' \, 'f' and 'n' chars in that order. This gives you [makefilename] \, for instance., f 52;
#X text 39 48 When typing in an object box \, press the hotkey to see suggestions. The hot key is set in preferences \, which is found in Pd->Preferences->Completion-plugin. The default hotkey is the left 'alt' key (ALT_L)., f 53;
#X connect 8 0 9 0;
