#N canvas 534 23 630 637 10;
#X obj 70 131 cnv 11 116 17 empty empty normal search 5 9 0 14 #000000 #fcfcfc 0;
#X obj 70 241 cnv 11 130 17 empty empty skipping search 5 9 0 14 #000000 #fcfcfc 0;
#X obj 70 401 cnv 11 150 17 empty empty monolithic search 5 9 0 14 #000000 #fcfcfc 0;
#X text 210 241 searches starting with a "." (period);
#X text 210 241 searches starting with a "." (period);
#X obj 66 511 cnv 11 476 17 empty empty See the full readme on 2 9 0 14 #009c04 #fcfcfc 0;
#X text 231 401 searches starting with a " " (comma);
#X text 387 401 \,;
#X text 69 86 There are 3 search modes. The plugin will change it's color to indicate which search mode is being used. You can edit those colors in Preferences -> Auto Complete Settings, f 90;
#X obj 72 13 cnv 11 232 17 empty empty PD Auto Complete plugin Help 2 9 0 14 #580094 #fcfcfc 0;
#X text 68 66 Click with the LMB or press enter to choose an completion., f 91;
#X text 66 156 1 - Create an object box and press Ctrl+space. Then type poly to see the suggestions;
#X text 68 39 Create a new object box \, place it and then press ALT_L anytime to start seeing suggestions. (you can edit this hotkey in preferences), f 91;
#X text 66 279 2 - Create an object box and press Alt_L. Then type ".mfn" to find the [makefilename] object. It searches for anything that contains the 'm' \, 'f' and 'n' chars in that order., f 89;
#X text 390 444 \,;
#X text 66 445 3 - Create an object box and press Alt_L. Then typing  demu may find the [demultiplex] object located inside the zexy binary \, which needs to be preloaded so the object can be created., f 68;
#X text 65 542 https://github.com/porres/completion-plugin;
