#N canvas 334 121 611 380 10;
#X obj 69 66 cnv 11 476 17 empty empty Please restart Pure Data after downloading\ the plugin 2 9 0 14 #b418ac #fcfcfc 0;
#X text 75 101 After restarting you can confirm in the console window the plugin was successfully loaded by seeing something like that:;
#X obj 69 190 cnv 11 476 17 empty empty see the help file 2 9 0 14 #206ce8 #fcfcfc 0;
#X obj 93 26 cnv 11 278 17 empty empty Pure Data Auto Complete Tcl plugin 2 9 0 14 #202020 #fcfcfc 0;
#X text 133 275 File->Preferences->Auto Complete settings;
#X text 70 226 You can open the help file by clicking on the "Help" button after going to;
#X text 130 149 [completion-plugin] version 0.48.0 [completion-plugin] finished scanning externals;
#X obj 333 318 README;
#X text 179 318 This loads this file -->;
